<svg width="3646" height="1615" xmlns="http://www.w3.org/2000/svg" xmlns:xlink="http://www.w3.org/1999/xlink" xml:space="preserve" overflow="hidden"><g transform="translate(-478 -317)"><rect x="480.5" y="319.5" width="3641" height="1610" stroke="#172C51" stroke-width="4.58333" stroke-miterlimit="8" fill="#FFFFFF"/><path d="M594.5 514C594.5 439.165 716.726 378.5 867.5 378.5 1018.27 378.5 1140.5 439.165 1140.5 514 1140.5 588.834 1018.27 649.5 867.5 649.5 716.726 649.5 594.5 588.834 594.5 514Z" stroke="#000000" stroke-width="6.875" stroke-miterlimit="8" fill="none" fill-rule="evenodd"/><text font-family="SimSun,SimSun_MSFontService,sans-serif" font-weight="700" font-size="83" transform="matrix(1 0 0 1 742.557 545)">发送方</text><rect x="594.5" y="869.5" width="546" height="271" stroke="#000000" stroke-width="6.875" stroke-miterlimit="8" fill="none"/><text font-family="SimSun,SimSun_MSFontService,sans-serif" font-weight="400" font-size="50" transform="matrix(1 0 0 1 715.916 974)">邮件用户代理</text><text font-family="Times New Roman,Times New Roman_MSFontService,sans-serif" font-weight="700" font-size="83" transform="matrix(1 0 0 1 768.625 1065)">MUA</text><path d="M870.938 649.5 870.938 846.583 864.063 846.583 864.063 649.5ZM881.25 842 867.5 869.5 853.75 842Z"/><rect x="594.5" y="1381.5" width="546" height="271" stroke="#000000" stroke-width="6.875" stroke-miterlimit="8" fill="none"/><text font-family="SimSun,SimSun_MSFontService,sans-serif" font-weight="400" font-size="50" transform="matrix(1 0 0 1 715.916 1485)">邮件传输代理</text><text font-family="Times New Roman,Times New Roman_MSFontService,sans-serif" font-weight="700" font-size="83" transform="matrix(1 0 0 1 773.964 1576)">MTA</text><path d="M870.938 1140.5 870.938 1357.75 864.063 1357.75 864.063 1140.5ZM881.25 1353.17 867.5 1380.67 853.75 1353.17Z"/><rect x="1662.5" y="1381.5" width="546" height="271" stroke="#000000" stroke-width="6.875" stroke-miterlimit="8" fill="none"/><text font-family="SimSun,SimSun_MSFontService,sans-serif" font-weight="400" font-size="50" transform="matrix(1 0 0 1 1783.83 1485)">邮件传输代理</text><text font-family="Times New Roman,Times New Roman_MSFontService,sans-serif" font-weight="700" font-size="83" transform="matrix(1 0 0 1 1841.88 1576)">MTA</text><path d="M1140.5 1513.06 1639.17 1513.06 1639.17 1519.94 1140.5 1519.94ZM1634.58 1502.75 1662.08 1516.5 1634.58 1530.25Z"/><rect x="1662.5" y="869.5" width="546" height="271" stroke="#000000" stroke-width="6.875" stroke-miterlimit="8" fill="none"/><text font-family="SimSun,SimSun_MSFontService,sans-serif" font-weight="400" font-size="50" transform="matrix(1 0 0 1 1783.83 974)">邮件投递代理</text><text font-family="Times New Roman,Times New Roman_MSFontService,sans-serif" font-weight="700" font-size="83" transform="matrix(1 0 0 1 1836.54 1065)">MDA</text><rect x="2486.5" y="869.5" width="546" height="271" stroke="#000000" stroke-width="6.875" stroke-miterlimit="8" fill="none"/><text font-family="SimSun,SimSun_MSFontService,sans-serif" font-weight="700" font-size="83" transform="matrix(1 0 0 1 2676.09 1036)">信箱</text><rect x="2486.5" y="1360.5" width="546" height="272" stroke="#000000" stroke-width="6.875" stroke-miterlimit="8" fill="none"/><text font-family="Times New Roman,Times New Roman_MSFontService,sans-serif" font-weight="700" font-size="83" transform="matrix(1 0 0 1 2580.42 1527)">POP/IMA</text><path d="M3511.5 1496.5C3511.5 1421.39 3633.73 1360.5 3784.5 1360.5 3935.27 1360.5 4057.5 1421.39 4057.5 1496.5 4057.5 1571.61 3935.27 1632.5 3784.5 1632.5 3633.73 1632.5 3511.5 1571.61 3511.5 1496.5Z" stroke="#000000" stroke-width="6.875" stroke-miterlimit="8" fill="none" fill-rule="evenodd"/><text font-family="SimSun,SimSun_MSFontService,sans-serif" font-weight="700" font-size="83" transform="matrix(1 0 0 1 3659.39 1528)">接收方</text><path d="M3.4375-5.16544e-06 3.43783 217.25-3.43717 217.25-3.4375 5.16544e-06ZM13.7503 212.667 0.000360892 240.167-13.7497 212.667Z" transform="matrix(1 0 0 -1 1935.5 1380.67)"/><path d="M2208.5 1002.06 2463.33 1002.06 2463.33 1008.94 2208.5 1008.94ZM2458.75 991.75 2486.25 1005.5 2458.75 1019.25Z"/><path d="M2762.94 1140.5 2762.94 1337.58 2756.06 1337.58 2756.06 1140.5ZM2773.25 1333 2759.5 1360.5 2745.75 1333Z"/><path d="M3032.5 1493.06 3488.08 1493.06 3488.08 1499.94 3032.5 1499.94ZM3483.5 1482.75 3511 1496.5 3483.5 1510.25Z"/><rect x="2414.5" y="752.5" width="695" height="1056" stroke="#FF0000" stroke-width="6.875" stroke-miterlimit="8" fill="none"/><text font-family="Times New Roman,Times New Roman_MSFontService,sans-serif" font-weight="700" font-size="83" transform="matrix(1 0 0 1 627 1288)">SMTP</text><text font-family="Times New Roman,Times New Roman_MSFontService,sans-serif" font-weight="700" font-size="83" transform="matrix(1 0 0 1 1261.34 1477)">SMTP</text><text font-family="Times New Roman,Times New Roman_MSFontService,sans-serif" font-weight="700" font-size="83" transform="matrix(1 0 0 1 3223.92 1476)">POP3</text><text font-family="Times New Roman,Times New Roman_MSFontService,sans-serif" font-weight="700" font-size="83" transform="matrix(1 0 0 1 3223.92 1573)">IMAP</text><text fill="#FF0000" font-family="Times New Roman,Times New Roman_MSFontService,sans-serif" font-weight="700" font-size="83" transform="matrix(1 0 0 1 2615.25 716)">Dovecot</text><text fill="#FF0000" font-family="Times New Roman,Times New Roman_MSFontService,sans-serif" font-weight="700" font-size="83" transform="matrix(1 0 0 1 1767.98 740)">Postfix</text><text fill="#FF0000" font-family="SimSun,SimSun_MSFontService,sans-serif" font-weight="700" font-size="83" transform="matrix(1 0 0 1 2010.89 740)">的</text><text fill="#FF0000" font-family="Times New Roman,Times New Roman_MSFontService,sans-serif" font-weight="700" font-size="83" transform="matrix(1 0 0 1 1728.72 839)">LMTP</text><text fill="#FF0000" font-family="SimSun,SimSun_MSFontService,sans-serif" font-weight="700" font-size="83" transform="matrix(1 0 0 1 1967.05 839)">模块</text><text fill="#FF0000" font-family="Times New Roman,Times New Roman_MSFontService,sans-serif" font-weight="700" font-size="83" transform="matrix(1 0 0 1 701.893 1671)">Postfix</text><text fill="#FF0000" font-family="SimSun,SimSun_MSFontService,sans-serif" font-weight="700" font-size="83" transform="matrix(1 0 0 1 944.809 1671)">的</text><text fill="#FF0000" font-family="Times New Roman,Times New Roman_MSFontService,sans-serif" font-weight="700" font-size="83" transform="matrix(1 0 0 1 667.22 1770)">SMTP</text><text fill="#FF0000" font-family="SimSun,SimSun_MSFontService,sans-serif" font-weight="700" font-size="83" transform="matrix(1 0 0 1 896.386 1770)">模块</text><text fill="#FF0000" font-family="Times New Roman,Times New Roman_MSFontService,sans-serif" font-weight="700" font-size="83" transform="matrix(1 0 0 1 1767.98 1671)">Postfix</text><text fill="#FF0000" font-family="SimSun,SimSun_MSFontService,sans-serif" font-weight="700" font-size="83" transform="matrix(1 0 0 1 2010.89 1671)">的</text><text fill="#FF0000" font-family="Times New Roman,Times New Roman_MSFontService,sans-serif" font-weight="700" font-size="83" transform="matrix(1 0 0 1 1703.51 1770)">SMTPD</text><text fill="#FF0000" font-family="SimSun,SimSun_MSFontService,sans-serif" font-weight="700" font-size="83" transform="matrix(1 0 0 1 1992.26 1770)">模块</text></g></svg>