<svg width="3666" height="1695" xmlns="http://www.w3.org/2000/svg" xmlns:xlink="http://www.w3.org/1999/xlink" xml:space="preserve" overflow="hidden"><g transform="translate(-587 -184)"><rect x="589.5" y="186.5" width="3661" height="1690" stroke="#172C51" stroke-width="4.58333" stroke-miterlimit="8" fill="#FFFFFF"/><rect x="2383.5" y="889.5" width="546" height="272" stroke="#000000" stroke-width="6.875" stroke-miterlimit="8" fill="#FFFFFF"/><text font-family="Times New Roman,Times New Roman_MSFontService,sans-serif" font-weight="700" font-size="83" transform="matrix(1 0 0 1 2534.74 1055)">Postfix</text><rect x="3628.5" y="888.5" width="547" height="271" stroke="#000000" stroke-width="6.875" stroke-miterlimit="8" fill="#FFFFFF"/><text font-family="Times New Roman,Times New Roman_MSFontService,sans-serif" font-weight="700" font-size="83" transform="matrix(1 0 0 1 3759.56 1054)">Dovecot</text><text fill="#FF0000" font-family="Times New Roman,Times New Roman_MSFontService,sans-serif" font-weight="700" font-size="83" transform="matrix(1 0 0 1 3001.62 1182)">SASL </text><text fill="#FF0000" font-family="SimSun,SimSun_MSFontService,sans-serif" font-weight="700" font-size="83" transform="matrix(1 0 0 1 3223.93 1182)">身份验证</text><text fill="#FF0000" font-family="SimSun,SimSun_MSFontService,sans-serif" font-weight="700" font-size="83" transform="matrix(1 0 0 1 1210.96 1177)">签名</text><text fill="#FF0000" font-family="Times New Roman,Times New Roman_MSFontService,sans-serif" font-weight="700" font-size="83" transform="matrix(1 0 0 1 1933.79 574)">SMTPS/Submission</text><text fill="#FF0000" font-family="SimSun,SimSun_MSFontService,sans-serif" font-weight="700" font-size="83" transform="matrix(1 0 0 1 2118.27 674)">加密发件</text><rect x="2383.5" y="252.5" width="546" height="143" stroke="#000000" stroke-width="6.875" stroke-miterlimit="8" fill="none"/><text font-family="SimSun,SimSun_MSFontService,sans-serif" font-weight="700" font-size="83" transform="matrix(1 0 0 1 2573.12 355)">用户</text><rect x="2383.5" y="1660.5" width="546" height="143" stroke="#000000" stroke-width="6.875" stroke-miterlimit="8" fill="none"/><text font-family="Times New Roman,Times New Roman_MSFontService,sans-serif" font-weight="700" font-size="83" transform="matrix(1 0 0 1 2514.11 1762)">MySQL</text><rect x="1475.5" y="1017.5" width="546" height="143" stroke="#000000" stroke-width="6.875" stroke-miterlimit="8" fill="none"/><text font-family="Times New Roman,Times New Roman_MSFontService,sans-serif" font-weight="700" font-size="83" transform="matrix(1 0 0 1 1534.96 1119)">OpenDKIM</text><path d="M0.00647334-3.43749 676.202-2.16411 676.189 4.71088-0.00647334 3.43749ZM671.637-12.4852 699.111 1.31654 671.585 15.0147Z" fill="#00B050" transform="matrix(1 0 0 -1 2929.5 960.816)"/><path d="M2383.27 1093.28 2044.41 1092.96 2044.42 1086.08 2383.28 1086.4ZM2048.99 1103.28 2021.5 1089.5 2049.01 1075.78Z" fill="#0000FF"/><path d="M1109.5 957.062 2360.45 957.455 2360.45 964.33 1109.5 963.937ZM2355.87 947.141 2383.36 960.9 2355.86 974.641Z" fill="#00B050"/><text font-family="SimSun,SimSun_MSFontService,sans-serif" font-weight="700" font-size="83" transform="matrix(1 0 0 1 902.04 992)">接收</text><text font-family="SimSun,SimSun_MSFontService,sans-serif" font-weight="700" font-size="83" transform="matrix(1 0 0 1 902.04 1120)">发送</text><path d="M3.39184e-06-3.4375 342.834-3.43716 342.834 3.43784-3.39184e-06 3.4375ZM338.251-13.7497 365.751 0.000360892 338.251 13.7503Z" fill="#0000FF" transform="matrix(-1 0 0 1 1475.25 1089.5)"/><path d="M7.28911e-06-3.4375 147.278-3.43719 147.278 3.43781-7.28911e-06 3.4375ZM142.695-13.7497 170.195 0.000360892 142.695 13.7503Z" fill="#0000FF" transform="matrix(-1 0 0 1 861.695 1089.5)"/><path d="M691.5 957.062 838.779 957.063 838.779 963.938 691.5 963.937ZM834.195 946.75 861.695 960.5 834.195 974.25Z" fill="#00B050"/><path d="M3900.05 891.233 2947.59 337.984 2951.05 332.04 3903.5 885.288ZM2946.37 349.202 2929.5 323.5 2960.19 325.423Z" fill="#00B050"/><path d="M2659.94 395.5 2659.94 867.161 2653.06 867.161 2653.06 395.5ZM2670.25 862.578 2656.5 890.078 2642.75 862.578Z" fill="#0000FF"/><text fill="#FF0000" font-family="SimSun,SimSun_MSFontService,sans-serif" font-weight="700" font-size="83" transform="matrix(1 0 0 1 1952.13 1496)">域名、用户名验证</text><text fill="#FF0000" font-family="SimSun,SimSun_MSFontService,sans-serif" font-weight="700" font-size="83" transform="matrix(1 0 0 1 3337.72 1580)">用户身份认证、</text><text fill="#FF0000" font-family="SimSun,SimSun_MSFontService,sans-serif" font-weight="700" font-size="83" transform="matrix(1 0 0 1 3343.45 1675)">维护用户邮箱</text><text fill="#FF0000" font-family="Times New Roman,Times New Roman_MSFontService,sans-serif" font-weight="700" font-size="83" transform="matrix(1 0 0 1 3438.72 482)">IMAPS</text><text fill="#FF0000" font-family="SimSun,SimSun_MSFontService,sans-serif" font-weight="700" font-size="83" transform="matrix(1 0 0 1 3405.5 582)">加密收件</text><text fill="#FF0000" font-family="Times New Roman,Times New Roman_MSFontService,sans-serif" font-weight="700" font-size="83" transform="matrix(1 0 0 1 2996.12 914)">LMTP </text><text fill="#FF0000" font-family="SimSun,SimSun_MSFontService,sans-serif" font-weight="700" font-size="83" transform="matrix(1 0 0 1 3250.51 914)">传递邮件</text><path d="M3.43752 22.9168 3.43784 476.738-3.43716 476.738-3.43748 22.9168ZM-13.75 27.5 0 0 13.75 27.5ZM13.7503 472.155 0.000360892 499.655-13.7497 472.155Z" transform="matrix(1 0 0 -1 2656.5 1661.15)"/><path d="M22.9168-3.43749 676.194-3.43715 676.194 3.43785 22.9168 3.43751ZM27.5 13.75 0 0 27.5-13.75ZM671.611-13.7497 699.111 0.000360892 671.611 13.7503Z" transform="matrix(-1 0 0 1 3628.61 1088.5)"/><path d="M21.4912 8.6648 954.273 557.881 950.785 563.806 18.003 14.5892ZM16.721 25.8016 0 0 30.6738 2.10417ZM955.557 546.67 972.278 572.471 941.604 570.367Z" transform="matrix(1 0 0 -1 2929.5 1731.97)"/></g></svg>